# xmcd
#
# Track frame offsets:
#	150
#	14650
#	30072
#	42932
#	58992
#	74332
#	85515
#	102242
#	113850
#	126302
#	139697
#	151502
#	164752
#	180265
#	195222
#	208132
#	221712
#	234345
#	247402
#	259507
#	271622
#	287747
#
# Disc length: 4023 seconds
#
# Revision: 1
# Processed by: cddbd v1.4PL0 Copyright (c) Steve Scherf et al.
# Submitted via: audiograbber 1.81.02
#
DISCID=330fb516
DTITLE=Various Artist - Absolute Country
DYEAR=1900
DGENRE=
TTITLE0=Carleene Carter - Every Little Thing
TTITLE1=Billy Ray Cyrus - Achy Breaky Heart
TTITLE2=Johnny Cash and Martin Delray - Get Rhythm
TTITLE3=Tom Kell - The Girl With The Single Rose
TTITLE4=Kelly Wills - Whatever Way The Wind Blows
TTITLE5=Alan Jackson - Chattahoochee
TTITLE6=Tanya Tucker feat Delbert McClinton - Tell Me About
TTITLE7=Garth Brooks - Not Counting You
TTITLE8=Steinar Albrigsten - The Old Flame Burns
TTITLE9=Jim Lauderdale - Heaven's Flame
TTITLE10=The Mavericks - Hay Good Lookin'
TTITLE11=Travis Tritt feat. Marty Stuart - A Hundred Years From Now
TTITLE12=Suzy Boggkss - Other Side Of the Hill
TTITLE13=Brooks and Dunn - Bot Scootin' Boogie
TTITLE14=The Pit Jackson - Don't Rock The Jukebox
TTITLE15=Tom Russel Band - A Little Love
TTITLE16=Mark Chesnutt and George Jones - Talking To Hank
TTITLE17=Suzy Bone - Outbound Plane
TTITLE18=Travis Tritt and J.Small - The Whiskey Ain't Working
TTITLE19=Randy Travis - Heart Of Hearts
TTITLE20=Patty Loveless - Blame It On Your Heart
TTITLE21=Mc Bride and The Ride - Love On The Loose, Heart On The Run
EXTD=
EXTT0=
EXTT1=
EXTT2=
EXTT3=
EXTT4=
EXTT5=
EXTT6=
EXTT7=
EXTT8=
EXTT9=
EXTT10=
EXTT11=
EXTT12=
EXTT13=
EXTT14=
EXTT15=
EXTT16=
EXTT17=
EXTT18=
EXTT19=
EXTT20=
EXTT21=
PLAYORDER=
